<?xml version="1.0" encoding="utf-8"?>
<!-- Generator: Adobe Illustrator 21.1.0, SVG Export Plug-In . SVG Version: 6.00 Build 0)  -->
<svg version="1.1" id="icon" xmlns="http://www.w3.org/2000/svg" xmlns:xlink="http://www.w3.org/1999/xlink" x="0px" y="0px"
	 viewBox="0 0 91 91" style="enable-background:new 0 0 91 91;" xml:space="preserve">
<style type="text/css">
	.st0{fill:url(#SVGID_1_);}
	.st1{fill:#DCD5FF;}
</style>
<g id="icon-bg">
	<linearGradient id="SVGID_1_" gradientUnits="userSpaceOnUse" x1="45.5" y1="9.094947e-13" x2="45.5" y2="91">
		<stop  offset="0" style="stop-color:#5C27A2"/>
		<stop  offset="1" style="stop-color:#37297D"/>
	</linearGradient>
	<rect y="0" class="st0" width="91" height="91"/>
</g>
<g id="icon-tag">
	<g>
		<polygon class="st1" points="31.8,45.5 31.4,45.5 31.4,46.1 32.1,46.1 32.1,45.6 31.8,45.6 		"/>
		<rect x="31" y="56.5" class="st1" width="0.4" height="0.6"/>
		<rect x="31.3" y="54.8" class="st1" width="0.4" height="0.6"/>
		<rect x="31.4" y="54" class="st1" width="0.4" height="0.6"/>
		<rect x="30.4" y="63.1" class="st1" width="0.6" height="0.6"/>
		<rect x="30.6" y="58.1" class="st1" width="0.4" height="0.6"/>
		<rect x="30" y="64.7" class="st1" width="0.6" height="0.6"/>
		<rect x="30.3" y="58.9" class="st1" width="0.4" height="0.6"/>
		<rect x="30.2" y="63.9" class="st1" width="0.6" height="0.6"/>
		<rect x="29.9" y="65.6" class="st1" width="0.6" height="0.6"/>
		<rect x="31.2" y="55.6" class="st1" width="0.4" height="0.6"/>
		<rect x="31.6" y="48.9" class="st1" width="0.6" height="0.6"/>
		<rect x="31.6" y="48.1" class="st1" width="0.6" height="0.6"/>
		<rect x="31.6" y="47.2" class="st1" width="0.6" height="0.6"/>
		<rect x="31.5" y="46.4" class="st1" width="0.6" height="0.6"/>
		<rect x="31.6" y="50.6" class="st1" width="0.6" height="0.6"/>
		<rect x="31.6" y="49.8" class="st1" width="0.6" height="0.6"/>
		<rect x="31.5" y="52.3" class="st1" width="0.4" height="0.6"/>
		<polygon class="st1" points="31.6,52.1 32,52.1 32,51.8 32.2,51.8 32.2,51.5 31.6,51.5 		"/>
		<rect x="31.5" y="53.1" class="st1" width="0.4" height="0.6"/>
		<rect x="30.8" y="57.3" class="st1" width="0.4" height="0.6"/>
		<rect x="33" y="63.1" class="st1" width="0.6" height="0.6"/>
		<rect x="32.8" y="64.8" class="st1" width="0.6" height="0.6"/>
		<rect x="32.9" y="63.9" class="st1" width="0.6" height="0.6"/>
		<rect x="32.4" y="60.4" class="st1" width="0.6" height="0.1"/>
		<rect x="30.6" y="62.3" class="st1" width="0.6" height="0.6"/>
		<rect x="34" y="65.6" class="st1" width="0.6" height="0.6"/>
		<rect x="33.5" y="60.6" class="st1" width="0.6" height="0.6"/>
		<rect x="32.3" y="60.6" class="st1" width="0.6" height="0.6"/>
		<rect x="33.3" y="61.4" class="st1" width="0.6" height="0.6"/>
		<rect x="33.2" y="62.3" class="st1" width="0.6" height="0.6"/>
		<rect x="32.8" y="65.6" class="st1" width="0.6" height="0.6"/>
		<rect x="31.4" y="65.6" class="st1" width="0.6" height="0.6"/>
		<rect x="31.2" y="60.4" class="st1" width="0.6" height="0.1"/>
		<rect x="31.1" y="60.6" class="st1" width="0.6" height="0.6"/>
		<rect x="30.9" y="61.4" class="st1" width="0.6" height="0.6"/>
		<rect x="31.9" y="62.3" class="st1" width="0.6" height="0.6"/>
		<rect x="32.1" y="61.4" class="st1" width="0.6" height="0.6"/>
		<rect x="31.8" y="63.1" class="st1" width="0.6" height="0.6"/>
		<rect x="31.6" y="63.9" class="st1" width="0.6" height="0.6"/>
		<rect x="31.5" y="64.8" class="st1" width="0.6" height="0.6"/>
		<rect x="27.4" y="33" class="st1" width="0.6" height="0.6"/>
		<rect x="33.4" y="38.6" class="st1" width="0.6" height="0.5"/>
		<rect x="30.5" y="33.6" class="st1" width="0.6" height="0.6"/>
		<rect x="33" y="36.8" class="st1" width="0.6" height="0.6"/>
		<rect x="33.2" y="37.7" class="st1" width="0.6" height="0.6"/>
		<rect x="30.8" y="34.3" class="st1" width="0.6" height="0.6"/>
		<rect x="31.5" y="35.8" class="st1" width="0.6" height="0.6"/>
		<rect x="32.1" y="37.5" class="st1" width="0.6" height="0.6"/>
		<rect x="31.8" y="36.7" class="st1" width="0.6" height="0.6"/>
		<rect x="32.8" y="36" class="st1" width="0.6" height="0.6"/>
		<rect x="31.2" y="35" class="st1" width="0.6" height="0.6"/>
		<rect x="32.2" y="34.4" class="st1" width="0.6" height="0.6"/>
		<rect x="34" y="36.1" class="st1" width="0.6" height="0.6"/>
		<rect x="33.8" y="35.3" class="st1" width="0.6" height="0.6"/>
		<rect x="33.5" y="34.6" class="st1" width="0.6" height="0.6"/>
		<rect x="34.2" y="37" class="st1" width="0.6" height="0.6"/>
		<rect x="34.5" y="38.7" class="st1" width="0.6" height="0.5"/>
		<rect x="32.3" y="38.4" class="st1" width="0.6" height="0.5"/>
		<rect x="31.9" y="33.7" class="st1" width="0.6" height="0.6"/>
		<rect x="34.3" y="37.8" class="st1" width="0.6" height="0.6"/>
		<rect x="32.5" y="35.2" class="st1" width="0.6" height="0.6"/>
		<rect x="30.9" y="37.4" class="st1" width="0.6" height="0.6"/>
		<rect x="30.5" y="40" class="st1" width="0.4" height="0.6"/>
		<rect x="30.3" y="39" class="st1" width="0.4" height="0.6"/>
		<polygon class="st1" points="30,38.8 30.4,38.8 30.4,38.6 30.6,38.6 30.6,38.1 30,38.1 		"/>
		<rect x="29.3" y="36.3" class="st1" width="0.6" height="0.6"/>
		<rect x="29.6" y="37.2" class="st1" width="0.6" height="0.6"/>
		<rect x="31.3" y="43.7" class="st1" width="0.4" height="0.6"/>
		<rect x="28.8" y="35.4" class="st1" width="0.6" height="0.6"/>
		<rect x="29" y="33.3" class="st1" width="0.6" height="0.6"/>
		<rect x="31.1" y="42.8" class="st1" width="0.4" height="0.6"/>
		<rect x="31" y="41.9" class="st1" width="0.4" height="0.6"/>
		<rect x="30.8" y="40.9" class="st1" width="0.4" height="0.6"/>
		<rect x="29.8" y="34.8" class="st1" width="0.6" height="0.6"/>
		<rect x="30.2" y="35.6" class="st1" width="0.6" height="0.6"/>
		<rect x="30.5" y="36.5" class="st1" width="0.6" height="0.6"/>
		<rect x="29.4" y="34" class="st1" width="0.6" height="0.6"/>
		<rect x="27.9" y="33.7" class="st1" width="0.6" height="0.6"/>
		<rect x="31.4" y="44.6" class="st1" width="0.4" height="0.6"/>
		<rect x="34.1" y="64.8" class="st1" width="0.6" height="0.6"/>
		<rect x="28.4" y="34.5" class="st1" width="0.6" height="0.6"/>
		<rect x="31.1" y="38.3" class="st1" width="0.6" height="0.5"/>
		<rect x="34.3" y="62.3" class="st1" width="0.6" height="0.6"/>
		<rect x="41.3" y="64" class="st1" width="0.6" height="0.6"/>
		<rect x="42.2" y="64.8" class="st1" width="0.6" height="0.6"/>
		<rect x="41.3" y="64.8" class="st1" width="0.6" height="0.6"/>
		<rect x="41.3" y="65.6" class="st1" width="0.6" height="0.6"/>
		<rect x="41.3" y="62.3" class="st1" width="0.6" height="0.6"/>
		<rect x="40.4" y="60.4" class="st1" width="0.6" height="0.1"/>
		<rect x="41.3" y="61.5" class="st1" width="0.6" height="0.6"/>
		<rect x="42.2" y="65.6" class="st1" width="0.6" height="0.6"/>
		<rect x="41.3" y="60.4" class="st1" width="0.6" height="0.1"/>
		<rect x="41.3" y="60.6" class="st1" width="0.6" height="0.6"/>
		<rect x="41.3" y="63.1" class="st1" width="0.6" height="0.6"/>
		<rect x="39.5" y="60.4" class="st1" width="0.6" height="0.1"/>
		<rect x="40.3" y="65.6" class="st1" width="0.6" height="0.6"/>
		<rect x="39.5" y="60.6" class="st1" width="0.6" height="0.6"/>
		<rect x="40.4" y="64.8" class="st1" width="0.6" height="0.6"/>
		<rect x="39.5" y="61.5" class="st1" width="0.6" height="0.6"/>
		<rect x="40.4" y="61.5" class="st1" width="0.6" height="0.6"/>
		<rect x="40.4" y="62.3" class="st1" width="0.6" height="0.6"/>
		<rect x="40.4" y="64" class="st1" width="0.6" height="0.6"/>
		<rect x="40.4" y="60.6" class="st1" width="0.6" height="0.6"/>
		<rect x="40.4" y="63.1" class="st1" width="0.6" height="0.6"/>
		<rect x="43" y="35.7" class="st1" width="0.6" height="0.6"/>
		<rect x="43.1" y="62.3" class="st1" width="0.6" height="0.6"/>
		<rect x="43.1" y="45.7" class="st1" width="0.6" height="0.6"/>
		<rect x="43.1" y="51.5" class="st1" width="0.6" height="0.4"/>
		<rect x="43.1" y="60.6" class="st1" width="0.6" height="0.6"/>
		<rect x="43.1" y="61.5" class="st1" width="0.6" height="0.6"/>
		<rect x="43.1" y="60.4" class="st1" width="0.6" height="0.1"/>
		<rect x="39.5" y="62.3" class="st1" width="0.6" height="0.6"/>
		<rect x="43" y="34" class="st1" width="0.6" height="0.6"/>
		<rect x="43.1" y="39" class="st1" width="0.6" height="0.5"/>
		<rect x="43" y="34.8" class="st1" width="0.6" height="0.6"/>
		<rect x="42.2" y="60.4" class="st1" width="0.6" height="0.1"/>
		<rect x="42.2" y="62.3" class="st1" width="0.6" height="0.6"/>
		<rect x="42.2" y="61.5" class="st1" width="0.6" height="0.6"/>
		<rect x="42.2" y="60.6" class="st1" width="0.6" height="0.6"/>
		<rect x="42.2" y="63.1" class="st1" width="0.6" height="0.6"/>
		<rect x="43.1" y="64" class="st1" width="0.6" height="0.6"/>
		<rect x="43.1" y="63.1" class="st1" width="0.6" height="0.6"/>
		<rect x="43.1" y="64.8" class="st1" width="0.6" height="0.6"/>
		<rect x="42.2" y="64" class="st1" width="0.6" height="0.6"/>
		<rect x="43.1" y="65.6" class="st1" width="0.6" height="0.6"/>
		<rect x="35.7" y="60.4" class="st1" width="0.6" height="0.1"/>
		<rect x="34.2" y="63.9" class="st1" width="0.6" height="0.6"/>
		<rect x="36.3" y="65.6" class="st1" width="0.6" height="0.6"/>
		<rect x="35.6" y="60.6" class="st1" width="0.6" height="0.6"/>
		<rect x="36.4" y="64.8" class="st1" width="0.6" height="0.6"/>
		<rect x="35.5" y="61.5" class="st1" width="0.6" height="0.6"/>
		<rect x="36.5" y="63.1" class="st1" width="0.6" height="0.6"/>
		<rect x="36.5" y="62.3" class="st1" width="0.6" height="0.6"/>
		<rect x="36.6" y="61.5" class="st1" width="0.6" height="0.6"/>
		<rect x="36.4" y="63.9" class="st1" width="0.6" height="0.6"/>
		<rect x="35.5" y="62.3" class="st1" width="0.6" height="0.6"/>
		<rect x="34.6" y="60.6" class="st1" width="0.6" height="0.6"/>
		<rect x="36.6" y="60.6" class="st1" width="0.6" height="0.6"/>
		<rect x="39.4" y="63.1" class="st1" width="0.6" height="0.6"/>
		<rect x="34.4" y="61.4" class="st1" width="0.6" height="0.6"/>
		<rect x="34.3" y="63.1" class="st1" width="0.6" height="0.6"/>
		<rect x="35.4" y="63.1" class="st1" width="0.6" height="0.6"/>
		<rect x="34.6" y="60.4" class="st1" width="0.6" height="0.1"/>
		<rect x="35.3" y="64.8" class="st1" width="0.6" height="0.6"/>
		<rect x="35.3" y="63.9" class="st1" width="0.6" height="0.6"/>
		<rect x="35.2" y="65.6" class="st1" width="0.6" height="0.6"/>
		<rect x="33.3" y="33.8" class="st1" width="0.6" height="0.6"/>
		<rect x="38.5" y="62.3" class="st1" width="0.6" height="0.6"/>
		<rect x="38.5" y="61.5" class="st1" width="0.6" height="0.6"/>
		<rect x="38.6" y="60.6" class="st1" width="0.6" height="0.6"/>
		<rect x="38.4" y="64.8" class="st1" width="0.6" height="0.6"/>
		<rect x="38.5" y="63.1" class="st1" width="0.6" height="0.6"/>
		<rect x="38.5" y="64" class="st1" width="0.6" height="0.6"/>
		<rect x="38.6" y="60.4" class="st1" width="0.6" height="0.1"/>
		<rect x="39.4" y="64.8" class="st1" width="0.6" height="0.6"/>
		<rect x="36.7" y="60.4" class="st1" width="0.6" height="0.1"/>
		<rect x="39.4" y="65.6" class="st1" width="0.6" height="0.6"/>
		<rect x="39.4" y="64" class="st1" width="0.6" height="0.6"/>
		<rect x="37.5" y="63.1" class="st1" width="0.6" height="0.6"/>
		<rect x="37.4" y="64.8" class="st1" width="0.6" height="0.6"/>
		<rect x="38.4" y="65.6" class="st1" width="0.6" height="0.6"/>
		<rect x="37.4" y="65.6" class="st1" width="0.6" height="0.6"/>
		<rect x="37.5" y="64" class="st1" width="0.6" height="0.6"/>
		<rect x="37.6" y="60.4" class="st1" width="0.6" height="0.1"/>
		<rect x="37.5" y="62.3" class="st1" width="0.6" height="0.6"/>
		<rect x="37.6" y="60.6" class="st1" width="0.6" height="0.6"/>
		<rect x="37.6" y="61.5" class="st1" width="0.6" height="0.6"/>
		<rect x="36.9" y="48.1" class="st1" width="0.6" height="0.6"/>
		<rect x="38.7" y="49" class="st1" width="0.6" height="0.6"/>
		<rect x="38.7" y="48.1" class="st1" width="0.6" height="0.6"/>
		<rect x="38.7" y="50.6" class="st1" width="0.6" height="0.6"/>
		<rect x="38.7" y="49.8" class="st1" width="0.6" height="0.6"/>
		<rect x="38.7" y="47.3" class="st1" width="0.6" height="0.6"/>
		<rect x="37.8" y="50.6" class="st1" width="0.6" height="0.6"/>
		<rect x="37.8" y="49.8" class="st1" width="0.6" height="0.6"/>
		<rect x="38.7" y="46.5" class="st1" width="0.6" height="0.6"/>
		<rect x="38.7" y="45.7" class="st1" width="0.6" height="0.6"/>
		<rect x="37.8" y="45.7" class="st1" width="0.6" height="0.6"/>
		<rect x="35.5" y="38.7" class="st1" width="0.6" height="0.5"/>
		<rect x="40.4" y="46.5" class="st1" width="0.6" height="0.6"/>
		<rect x="39.6" y="45.7" class="st1" width="0.6" height="0.6"/>
		<rect x="39.6" y="46.5" class="st1" width="0.6" height="0.6"/>
		<rect x="39.6" y="49.8" class="st1" width="0.6" height="0.6"/>
		<rect x="40.4" y="48.1" class="st1" width="0.6" height="0.6"/>
		<rect x="40.4" y="47.3" class="st1" width="0.6" height="0.6"/>
		<rect x="39.6" y="48.1" class="st1" width="0.6" height="0.6"/>
		<rect x="37.8" y="49" class="st1" width="0.6" height="0.6"/>
		<rect x="39.6" y="50.6" class="st1" width="0.6" height="0.6"/>
		<rect x="39.6" y="49" class="st1" width="0.6" height="0.6"/>
		<rect x="36" y="49" class="st1" width="0.6" height="0.6"/>
		<rect x="36" y="47.3" class="st1" width="0.6" height="0.6"/>
		<rect x="40.4" y="49" class="st1" width="0.6" height="0.6"/>
		<rect x="36" y="45.7" class="st1" width="0.6" height="0.6"/>
		<rect x="36" y="49.8" class="st1" width="0.6" height="0.6"/>
		<rect x="36" y="50.6" class="st1" width="0.6" height="0.6"/>
		<rect x="36" y="48.1" class="st1" width="0.6" height="0.6"/>
		<rect x="35.2" y="49.8" class="st1" width="0.6" height="0.6"/>
		<rect x="35.2" y="49" class="st1" width="0.6" height="0.6"/>
		<rect x="35.2" y="50.6" class="st1" width="0.6" height="0.6"/>
		<rect x="35.1" y="45.7" class="st1" width="0.6" height="0.6"/>
		<rect x="43" y="36.5" class="st1" width="0.6" height="0.6"/>
		<rect x="36.9" y="45.7" class="st1" width="0.6" height="0.6"/>
		<rect x="37.8" y="46.5" class="st1" width="0.6" height="0.6"/>
		<rect x="37.8" y="47.3" class="st1" width="0.6" height="0.6"/>
		<rect x="36.9" y="49.8" class="st1" width="0.6" height="0.6"/>
		<rect x="36.9" y="49" class="st1" width="0.6" height="0.6"/>
		<rect x="36.9" y="50.6" class="st1" width="0.6" height="0.6"/>
		<rect x="36.9" y="47.3" class="st1" width="0.6" height="0.6"/>
		<rect x="37.8" y="48.1" class="st1" width="0.6" height="0.6"/>
		<rect x="36.9" y="46.5" class="st1" width="0.6" height="0.6"/>
		<rect x="36" y="46.5" class="st1" width="0.6" height="0.6"/>
		<rect x="42.1" y="34.8" class="st1" width="0.6" height="0.6"/>
		<rect x="42.1" y="35.7" class="st1" width="0.6" height="0.6"/>
		<polygon class="st1" points="30.5,59.8 30.1,59.8 30.1,60.4 30.8,60.4 30.8,60.4 30.5,60.4 		"/>
		<rect x="42.1" y="34" class="st1" width="0.6" height="0.6"/>
		<rect x="42.1" y="36.5" class="st1" width="0.6" height="0.6"/>
		<rect x="43.1" y="49.8" class="st1" width="0.6" height="0.6"/>
		<rect x="29.8" y="60.6" class="st1" width="0.6" height="0.6"/>
		<rect x="42.2" y="39" class="st1" width="0.6" height="0.5"/>
		<rect x="42.2" y="38.1" class="st1" width="0.6" height="0.6"/>
		<rect x="42.1" y="37.3" class="st1" width="0.6" height="0.6"/>
		<rect x="28.3" y="65.6" class="st1" width="0.6" height="0.6"/>
		<rect x="44" y="60.4" class="st1" width="0.5" height="0.1"/>
		<rect x="40.4" y="50.6" class="st1" width="0.6" height="0.6"/>
		<rect x="43.9" y="33.5" class="st1" width="0.5" height="0.3"/>
		<rect x="28.5" y="64.7" class="st1" width="0.6" height="0.6"/>
		<rect x="44" y="45.7" class="st1" width="0.5" height="0.6"/>
		<rect x="29.3" y="62.2" class="st1" width="0.6" height="0.6"/>
		<rect x="29" y="63.1" class="st1" width="0.6" height="0.6"/>
		<rect x="43.1" y="50.6" class="st1" width="0.6" height="0.6"/>
		<rect x="28.7" y="63.9" class="st1" width="0.6" height="0.6"/>
		<rect x="29.6" y="61.4" class="st1" width="0.6" height="0.6"/>
		<rect x="41.3" y="48.1" class="st1" width="0.6" height="0.6"/>
		<rect x="41.3" y="49" class="st1" width="0.6" height="0.6"/>
		<rect x="41.3" y="50.6" class="st1" width="0.6" height="0.6"/>
		<rect x="41.3" y="45.7" class="st1" width="0.6" height="0.6"/>
		<rect x="41.3" y="49.8" class="st1" width="0.6" height="0.6"/>
		<rect x="41.3" y="47.3" class="st1" width="0.6" height="0.6"/>
		<rect x="43.1" y="49" class="st1" width="0.6" height="0.6"/>
		<rect x="40.4" y="45.7" class="st1" width="0.6" height="0.6"/>
		<rect x="42.2" y="46.5" class="st1" width="0.6" height="0.6"/>
		<rect x="41.3" y="46.5" class="st1" width="0.6" height="0.6"/>
		<rect x="40.4" y="49.8" class="st1" width="0.6" height="0.6"/>
		<rect x="43.1" y="46.5" class="st1" width="0.6" height="0.6"/>
		<rect x="43.1" y="47.3" class="st1" width="0.6" height="0.6"/>
		<rect x="43.1" y="48.1" class="st1" width="0.6" height="0.6"/>
		<rect x="32.5" y="51.5" class="st1" width="0.6" height="0.4"/>
		<rect x="42.2" y="49.8" class="st1" width="0.6" height="0.6"/>
		<rect x="42.2" y="48.1" class="st1" width="0.6" height="0.6"/>
		<rect x="42.2" y="49" class="st1" width="0.6" height="0.6"/>
		<rect x="42.2" y="47.3" class="st1" width="0.6" height="0.6"/>
		<rect x="42.2" y="50.6" class="st1" width="0.6" height="0.6"/>
		<rect x="39.6" y="47.3" class="st1" width="0.6" height="0.6"/>
		<rect x="41.3" y="39" class="st1" width="0.6" height="0.5"/>
		<rect x="38.1" y="34" class="st1" width="0.6" height="0.6"/>
		<rect x="39.3" y="36.4" class="st1" width="0.6" height="0.6"/>
		<rect x="39.4" y="37.3" class="st1" width="0.6" height="0.6"/>
		<rect x="38.2" y="34.8" class="st1" width="0.6" height="0.6"/>
		<rect x="39.4" y="38.1" class="st1" width="0.6" height="0.6"/>
		<rect x="38.4" y="37.2" class="st1" width="0.6" height="0.6"/>
		<rect x="38.2" y="35.6" class="st1" width="0.6" height="0.6"/>
		<rect x="38.4" y="38.1" class="st1" width="0.6" height="0.6"/>
		<rect x="38.3" y="36.4" class="st1" width="0.6" height="0.6"/>
		<rect x="40.2" y="35.6" class="st1" width="0.6" height="0.6"/>
		<rect x="40.3" y="37.3" class="st1" width="0.6" height="0.6"/>
		<rect x="40.3" y="36.5" class="st1" width="0.6" height="0.6"/>
		<rect x="38.5" y="38.9" class="st1" width="0.6" height="0.5"/>
		<rect x="39.3" y="35.6" class="st1" width="0.6" height="0.6"/>
		<rect x="40.1" y="34" class="st1" width="0.6" height="0.6"/>
		<rect x="40.2" y="34.8" class="st1" width="0.6" height="0.6"/>
		<rect x="39.2" y="34.8" class="st1" width="0.6" height="0.6"/>
		<rect x="39.1" y="34" class="st1" width="0.6" height="0.6"/>
		<rect x="40.3" y="38.1" class="st1" width="0.6" height="0.6"/>
		<rect x="40.4" y="39" class="st1" width="0.6" height="0.5"/>
		<rect x="39.4" y="38.9" class="st1" width="0.6" height="0.5"/>
		<rect x="34.6" y="33.9" class="st1" width="0.6" height="0.6"/>
		<rect x="37" y="34" class="st1" width="0.6" height="0.6"/>
		<rect x="36.3" y="37.1" class="st1" width="0.6" height="0.6"/>
		<rect x="34.8" y="34.7" class="st1" width="0.6" height="0.6"/>
		<rect x="36.4" y="38" class="st1" width="0.6" height="0.6"/>
		<rect x="35" y="35.4" class="st1" width="0.6" height="0.6"/>
		<rect x="36.2" y="36.3" class="st1" width="0.6" height="0.6"/>
		<rect x="35.4" y="37.9" class="st1" width="0.6" height="0.6"/>
		<rect x="35.3" y="37.1" class="st1" width="0.6" height="0.6"/>
		<rect x="35.1" y="36.2" class="st1" width="0.6" height="0.6"/>
		<rect x="36.5" y="38.8" class="st1" width="0.6" height="0.5"/>
		<rect x="37.2" y="35.6" class="st1" width="0.6" height="0.6"/>
		<rect x="37.3" y="36.4" class="st1" width="0.6" height="0.6"/>
		<rect x="37.4" y="37.2" class="st1" width="0.6" height="0.6"/>
		<rect x="37.1" y="34.8" class="st1" width="0.6" height="0.6"/>
		<rect x="35.8" y="34" class="st1" width="0.6" height="0.6"/>
		<rect x="37.5" y="38" class="st1" width="0.6" height="0.6"/>
		<rect x="36" y="34.7" class="st1" width="0.6" height="0.6"/>
		<rect x="36.1" y="35.5" class="st1" width="0.6" height="0.6"/>
		<rect x="37.5" y="38.9" class="st1" width="0.6" height="0.5"/>
		<rect x="33.4" y="51.5" class="st1" width="0.6" height="0.4"/>
		<rect x="33.3" y="45.6" class="st1" width="0.6" height="0.6"/>
		<rect x="33.4" y="48.1" class="st1" width="0.6" height="0.6"/>
		<rect x="33.3" y="47.3" class="st1" width="0.6" height="0.6"/>
		<rect x="33.4" y="50.6" class="st1" width="0.6" height="0.6"/>
		<rect x="33.4" y="49.8" class="st1" width="0.6" height="0.6"/>
		<rect x="33.4" y="49" class="st1" width="0.6" height="0.6"/>
		<rect x="32.5" y="49.8" class="st1" width="0.6" height="0.6"/>
		<rect x="32.5" y="50.6" class="st1" width="0.6" height="0.6"/>
		<rect x="32.5" y="49" class="st1" width="0.6" height="0.6"/>
		<rect x="32.4" y="45.6" class="st1" width="0.6" height="0.6"/>
		<rect x="33.3" y="46.4" class="st1" width="0.6" height="0.6"/>
		<rect x="34.3" y="49.8" class="st1" width="0.6" height="0.6"/>
		<rect x="35.1" y="46.4" class="st1" width="0.6" height="0.6"/>
		<rect x="34.2" y="45.6" class="st1" width="0.6" height="0.6"/>
		<rect x="35.1" y="47.3" class="st1" width="0.6" height="0.6"/>
		<rect x="34.3" y="50.6" class="st1" width="0.6" height="0.6"/>
		<rect x="34.2" y="46.4" class="st1" width="0.6" height="0.6"/>
		<rect x="34.3" y="48.1" class="st1" width="0.6" height="0.6"/>
		<rect x="34.2" y="47.3" class="st1" width="0.6" height="0.6"/>
		<rect x="34.3" y="49" class="st1" width="0.6" height="0.6"/>
		<rect x="35.1" y="51.5" class="st1" width="0.6" height="0.4"/>
		<rect x="42.2" y="51.5" class="st1" width="0.6" height="0.4"/>
		<rect x="32.5" y="48.1" class="st1" width="0.6" height="0.6"/>
		<rect x="41.1" y="34" class="st1" width="0.6" height="0.6"/>
		<rect x="40.4" y="51.5" class="st1" width="0.6" height="0.4"/>
		<rect x="41.3" y="51.5" class="st1" width="0.6" height="0.4"/>
		<rect x="41.1" y="34.8" class="st1" width="0.6" height="0.6"/>
		<rect x="41.2" y="37.3" class="st1" width="0.6" height="0.6"/>
		<rect x="39.6" y="51.5" class="st1" width="0.6" height="0.4"/>
		<rect x="41.2" y="36.5" class="st1" width="0.6" height="0.6"/>
		<rect x="41.2" y="35.7" class="st1" width="0.6" height="0.6"/>
		<rect x="42.2" y="45.7" class="st1" width="0.6" height="0.6"/>
		<rect x="32.4" y="46.4" class="st1" width="0.6" height="0.6"/>
		<rect x="35.1" y="48.1" class="st1" width="0.6" height="0.6"/>
		<rect x="34.3" y="51.5" class="st1" width="0.6" height="0.4"/>
		<rect x="32.5" y="47.3" class="st1" width="0.6" height="0.6"/>
		<rect x="38.7" y="51.5" class="st1" width="0.6" height="0.4"/>
		<rect x="36.9" y="51.5" class="st1" width="0.6" height="0.4"/>
		<rect x="37.8" y="51.5" class="st1" width="0.6" height="0.4"/>
		<rect x="41.3" y="38.1" class="st1" width="0.6" height="0.6"/>
		<rect x="36" y="51.5" class="st1" width="0.6" height="0.4"/>
		<rect x="33.5" y="60.4" class="st1" width="0.6" height="0.1"/>
		<rect x="26.1" y="51.5" class="st1" width="0.6" height="0.6"/>
		<rect x="24.7" y="56.4" class="st1" width="0.6" height="0.6"/>
		<rect x="25.1" y="55.6" class="st1" width="0.6" height="0.6"/>
		<rect x="23.7" y="58.1" class="st1" width="0.6" height="0.6"/>
		<rect x="23.1" y="58.9" class="st1" width="0.6" height="0.6"/>
		<rect x="22.3" y="59.7" class="st1" width="0.6" height="0.6"/>
		<rect x="26" y="52.3" class="st1" width="0.6" height="0.6"/>
		<rect x="25.4" y="54.8" class="st1" width="0.6" height="0.6"/>
		<rect x="25.9" y="53.1" class="st1" width="0.6" height="0.6"/>
		<rect x="25.7" y="54" class="st1" width="0.6" height="0.6"/>
		<rect x="24.3" y="57.3" class="st1" width="0.6" height="0.6"/>
		<rect x="21" y="32" class="st1" width="0.6" height="0.6"/>
		<rect x="16.3" y="64.6" class="st1" width="0.6" height="0.6"/>
		<rect x="20.2" y="30.7" class="st1" width="0.6" height="0.6"/>
		<rect x="15.4" y="65.4" class="st1" width="0.6" height="0.6"/>
		<rect x="19.5" y="29.4" class="st1" width="0.6" height="0.6"/>
		<rect x="19.6" y="62.2" class="st1" width="0.6" height="0.6"/>
		<rect x="21.5" y="60.5" class="st1" width="0.6" height="0.6"/>
		<rect x="17.4" y="63.8" class="st1" width="0.6" height="0.6"/>
		<rect x="20.6" y="61.3" class="st1" width="0.6" height="0.6"/>
		<rect x="18.5" y="63" class="st1" width="0.6" height="0.6"/>
		<rect x="19.1" y="28.6" class="st1" width="0.6" height="0.3"/>
		<rect x="23.6" y="38" class="st1" width="0.6" height="0.6"/>
		<rect x="23" y="36.8" class="st1" width="0.6" height="0.6"/>
		<rect x="24.6" y="40.3" class="st1" width="0.6" height="0.6"/>
		<rect x="24.2" y="39.2" class="st1" width="0.6" height="0.6"/>
		<rect x="22.3" y="35.6" class="st1" width="0.6" height="0.6"/>
		<rect x="21.5" y="34.3" class="st1" width="0.6" height="0.6"/>
		<rect x="18.7" y="30" class="st1" width="0.6" height="0.6"/>
		<rect x="19.6" y="31.5" class="st1" width="0.6" height="0.6"/>
		<rect x="20.6" y="32.9" class="st1" width="0.6" height="0.6"/>
		<rect x="25" y="41.4" class="st1" width="0.6" height="0.6"/>
		<rect x="26.2" y="48.9" class="st1" width="0.6" height="0.6"/>
		<rect x="26.2" y="48" class="st1" width="0.6" height="0.6"/>
		<rect x="26.1" y="47.2" class="st1" width="0.6" height="0.6"/>
		<rect x="26.2" y="50.6" class="st1" width="0.6" height="0.6"/>
		<rect x="26.2" y="49.8" class="st1" width="0.6" height="0.6"/>
		<rect x="25.8" y="44.4" class="st1" width="0.6" height="0.6"/>
		<rect x="26.1" y="46.3" class="st1" width="0.6" height="0.6"/>
		<rect x="25.3" y="42.4" class="st1" width="0.6" height="0.6"/>
		<rect x="25.6" y="43.4" class="st1" width="0.6" height="0.6"/>
		<rect x="25.9" y="45.3" class="st1" width="0.6" height="0.6"/>
		<rect x="43" y="37.3" class="st1" width="0.6" height="0.6"/>
		<rect x="24.3" y="58.9" class="st1" width="0.6" height="0.6"/>
		<rect x="24.9" y="58.1" class="st1" width="0.6" height="0.6"/>
		<rect x="21.3" y="62.2" class="st1" width="0.6" height="0.6"/>
		<rect x="22.1" y="61.4" class="st1" width="0.6" height="0.6"/>
		<rect x="22.9" y="60.5" class="st1" width="0.6" height="0.6"/>
		<rect x="23.7" y="59.7" class="st1" width="0.6" height="0.6"/>
		<rect x="26.4" y="54.8" class="st1" width="0.6" height="0.6"/>
		<rect x="26.1" y="55.6" class="st1" width="0.6" height="0.6"/>
		<rect x="25.4" y="57.3" class="st1" width="0.6" height="0.6"/>
		<rect x="25.8" y="56.4" class="st1" width="0.6" height="0.6"/>
		<rect x="22.5" y="32.6" class="st1" width="0.6" height="0.6"/>
		<rect x="21.2" y="30.3" class="st1" width="0.6" height="0.6"/>
		<rect x="26.6" y="54" class="st1" width="0.6" height="0.6"/>
		<rect x="21.8" y="31.5" class="st1" width="0.6" height="0.6"/>
		<rect x="23.2" y="33.8" class="st1" width="0.6" height="0.6"/>
		<rect x="20.4" y="63" class="st1" width="0.6" height="0.6"/>
		<rect x="19.5" y="63.8" class="st1" width="0.6" height="0.6"/>
		<rect x="20.8" y="29.6" class="st1" width="0.6" height="0.3"/>
		<rect x="18" y="65.4" class="st1" width="0.6" height="0.6"/>
		<rect x="18.7" y="64.6" class="st1" width="0.6" height="0.6"/>
		<rect x="27.1" y="49.8" class="st1" width="0.6" height="0.6"/>
		<rect x="26" y="41.4" class="st1" width="0.6" height="0.6"/>
		<rect x="25.6" y="40.4" class="st1" width="0.6" height="0.6"/>
		<rect x="25.2" y="39.3" class="st1" width="0.6" height="0.6"/>
		<rect x="26.8" y="53.1" class="st1" width="0.6" height="0.6"/>
		<rect x="26.7" y="44.4" class="st1" width="0.6" height="0.6"/>
		<rect x="26.3" y="42.5" class="st1" width="0.6" height="0.6"/>
		<rect x="22.7" y="34.6" class="st1" width="0.6" height="0.6"/>
		<rect x="23.4" y="35.8" class="st1" width="0.6" height="0.6"/>
		<rect x="24.7" y="38.2" class="st1" width="0.6" height="0.6"/>
		<rect x="24.1" y="37" class="st1" width="0.6" height="0.6"/>
		<rect x="26.5" y="43.5" class="st1" width="0.6" height="0.6"/>
		<rect x="27.1" y="50.6" class="st1" width="0.6" height="0.6"/>
		<rect x="27" y="51.5" class="st1" width="0.6" height="0.6"/>
		<rect x="21.9" y="33.3" class="st1" width="0.6" height="0.6"/>
		<rect x="26.9" y="52.3" class="st1" width="0.6" height="0.6"/>
		<rect x="17.8" y="28.5" class="st1" width="0.6" height="0.6"/>
		<rect x="27" y="46.3" class="st1" width="0.6" height="0.6"/>
		<rect x="26.8" y="45.4" class="st1" width="0.6" height="0.6"/>
		<rect x="27.1" y="48" class="st1" width="0.6" height="0.6"/>
		<rect x="27.1" y="48.9" class="st1" width="0.6" height="0.6"/>
		<rect x="42.2" y="66.5" class="st1" width="0.6" height="0.1"/>
		<rect x="39.4" y="66.5" class="st1" width="0.6" height="0.1"/>
		<rect x="38.4" y="66.5" class="st1" width="0.6" height="0.1"/>
		<rect x="37.4" y="66.5" class="st1" width="0.6" height="0.1"/>
		<rect x="35.2" y="66.4" class="st1" width="0.6" height="0.1"/>
		<rect x="36.3" y="66.4" class="st1" width="0.6" height="0.1"/>
		<rect x="40.3" y="66.5" class="st1" width="0.6" height="0.1"/>
		<rect x="44" y="66.5" class="st1" width="0.5" height="0.1"/>
		<rect x="43.1" y="66.5" class="st1" width="0.6" height="0.1"/>
		<rect x="24" y="35" class="st1" width="0.6" height="0.6"/>
		<rect x="41.3" y="66.5" class="st1" width="0.6" height="0.1"/>
		<rect x="44" y="65.6" class="st1" width="0.5" height="0.6"/>
		<rect x="22.4" y="66.3" class="st1" width="0.6" height="0.1"/>
		<rect x="34" y="66.4" class="st1" width="0.6" height="0.1"/>
		<rect x="20.1" y="66.3" class="st1" width="0.6" height="0.1"/>
		<rect x="26.4" y="66.4" class="st1" width="0.6" height="0.1"/>
		<rect x="17.6" y="66.3" class="st1" width="0.6" height="0.1"/>
		<rect x="24.5" y="66.4" class="st1" width="0.6" height="0.1"/>
		<rect x="31.3" y="66.4" class="st1" width="0.6" height="0.1"/>
		<rect x="17.2" y="27.5" class="st1" width="0.6" height="0.3"/>
		<rect x="29.8" y="66.4" class="st1" width="0.6" height="0.1"/>
		<rect x="28.2" y="66.4" class="st1" width="0.6" height="0.1"/>
		<rect x="44" y="49" class="st1" width="0.5" height="0.6"/>
		<rect x="43.9" y="39" class="st1" width="0.5" height="0.5"/>
		<rect x="43.9" y="37.3" class="st1" width="0.5" height="0.6"/>
		<rect x="43.9" y="38.1" class="st1" width="0.5" height="0.6"/>
		<rect x="44" y="46.5" class="st1" width="0.5" height="0.6"/>
		<rect x="44" y="48.1" class="st1" width="0.5" height="0.6"/>
		<rect x="44" y="47.3" class="st1" width="0.5" height="0.6"/>
		<rect x="43.9" y="34" class="st1" width="0.5" height="0.6"/>
		<rect x="43.9" y="34.8" class="st1" width="0.5" height="0.6"/>
		<rect x="43.9" y="35.7" class="st1" width="0.5" height="0.6"/>
		<rect x="43.9" y="36.5" class="st1" width="0.5" height="0.6"/>
		<rect x="44" y="63.1" class="st1" width="0.5" height="0.6"/>
		<rect x="44" y="62.3" class="st1" width="0.5" height="0.6"/>
		<rect x="44" y="64.8" class="st1" width="0.5" height="0.6"/>
		<rect x="44" y="64" class="st1" width="0.5" height="0.6"/>
		<rect x="44" y="61.5" class="st1" width="0.5" height="0.6"/>
		<rect x="44" y="51.5" class="st1" width="0.5" height="0.4"/>
		<rect x="44" y="60.6" class="st1" width="0.5" height="0.6"/>
		<rect x="44" y="49.8" class="st1" width="0.5" height="0.6"/>
		<rect x="44" y="50.6" class="st1" width="0.5" height="0.6"/>
		<rect x="14.9" y="66.2" class="st1" width="0.6" height="0.1"/>
		<rect x="32.7" y="66.4" class="st1" width="0.6" height="0.1"/>
		<rect x="24.1" y="55.6" class="st1" width="0.6" height="0.6"/>
		<rect x="24.5" y="54.8" class="st1" width="0.6" height="0.6"/>
		<rect x="23.2" y="57.3" class="st1" width="0.6" height="0.6"/>
		<rect x="23.7" y="56.4" class="st1" width="0.6" height="0.6"/>
		<rect x="24.7" y="54" class="st1" width="0.6" height="0.6"/>
		<rect x="25.1" y="52.3" class="st1" width="0.6" height="0.6"/>
		<rect x="25.3" y="50.6" class="st1" width="0.6" height="0.6"/>
		<rect x="25.2" y="51.5" class="st1" width="0.6" height="0.6"/>
		<rect x="25" y="53.1" class="st1" width="0.6" height="0.6"/>
		<rect x="22.6" y="58.1" class="st1" width="0.6" height="0.6"/>
		<rect x="12.7" y="65.4" class="st1" width="0.6" height="0.6"/>
		<rect x="21.9" y="58.9" class="st1" width="0.6" height="0.6"/>
		<rect x="15.3" y="63.8" class="st1" width="0.6" height="0.6"/>
		<rect x="16.6" y="63" class="st1" width="0.6" height="0.6"/>
		<rect x="13.9" y="64.6" class="st1" width="0.6" height="0.6"/>
		<rect x="25.3" y="49.8" class="st1" width="0.6" height="0.6"/>
		<rect x="17.9" y="62.1" class="st1" width="0.6" height="0.6"/>
		<rect x="21.1" y="59.7" class="st1" width="0.6" height="0.6"/>
		<rect x="20.2" y="60.5" class="st1" width="0.6" height="0.6"/>
		<rect x="19.1" y="61.3" class="st1" width="0.6" height="0.6"/>
		<rect x="25.2" y="46.2" class="st1" width="0.6" height="0.6"/>
		<rect x="20.3" y="34" class="st1" width="0.6" height="0.6"/>
		<rect x="19.4" y="32.5" class="st1" width="0.6" height="0.6"/>
		<rect x="21.2" y="35.4" class="st1" width="0.6" height="0.6"/>
		<rect x="22.6" y="37.9" class="st1" width="0.6" height="0.6"/>
		<rect x="22" y="36.7" class="st1" width="0.6" height="0.6"/>
		<rect x="18.3" y="31" class="st1" width="0.6" height="0.6"/>
		<rect x="15.3" y="26.4" class="st1" width="0.6" height="0.3"/>
		<rect x="23.2" y="39.1" class="st1" width="0.6" height="0.6"/>
		<rect x="16.1" y="27.6" class="st1" width="0.6" height="0.6"/>
		<rect x="25.3" y="48.9" class="st1" width="0.6" height="0.6"/>
		<rect x="17.2" y="29.3" class="st1" width="0.6" height="0.6"/>
		<rect x="25" y="45.3" class="st1" width="0.6" height="0.6"/>
		<rect x="25.3" y="47.1" class="st1" width="0.6" height="0.6"/>
		<rect x="12" y="66.2" class="st1" width="0.6" height="0.1"/>
		<rect x="23.7" y="40.2" class="st1" width="0.6" height="0.6"/>
		<rect x="25.3" y="48" class="st1" width="0.6" height="0.6"/>
		<rect x="24.4" y="42.4" class="st1" width="0.6" height="0.6"/>
		<rect x="24.1" y="41.3" class="st1" width="0.6" height="0.6"/>
		<rect x="24.7" y="43.4" class="st1" width="0.6" height="0.6"/>
		<rect x="24.9" y="44.4" class="st1" width="0.6" height="0.6"/>
		<rect x="27" y="47.2" class="st1" width="0.6" height="0.6"/>
		<rect x="24.7" y="65.5" class="st1" width="0.6" height="0.6"/>
		<rect x="25" y="64.7" class="st1" width="0.6" height="0.6"/>
		<rect x="25.9" y="32.6" class="st1" width="0.6" height="0.6"/>
		<rect x="30.3" y="43.7" class="st1" width="0.6" height="0.6"/>
		<rect x="25.4" y="63.9" class="st1" width="0.6" height="0.6"/>
		<rect x="25.5" y="32.2" class="st1" width="0.6" height="0.3"/>
		<rect x="25.8" y="63" class="st1" width="0.6" height="0.6"/>
		<rect x="27.6" y="59.8" class="st1" width="0.6" height="0.6"/>
		<rect x="26.7" y="61.4" class="st1" width="0.6" height="0.6"/>
		<rect x="29" y="41.7" class="st1" width="0.6" height="0.6"/>
		<rect x="27.2" y="60.6" class="st1" width="0.6" height="0.6"/>
		<rect x="26.9" y="34.2" class="st1" width="0.6" height="0.6"/>
		<rect x="29.5" y="39.9" class="st1" width="0.6" height="0.6"/>
		<rect x="29.8" y="40.8" class="st1" width="0.6" height="0.6"/>
		<rect x="30" y="41.8" class="st1" width="0.6" height="0.6"/>
		<rect x="30.2" y="42.7" class="st1" width="0.6" height="0.6"/>
		<rect x="29.2" y="38.9" class="st1" width="0.6" height="0.6"/>
		<rect x="27.4" y="35.1" class="st1" width="0.6" height="0.6"/>
		<rect x="27.9" y="36" class="st1" width="0.6" height="0.6"/>
		<rect x="24.6" y="36.1" class="st1" width="0.6" height="0.6"/>
		<rect x="28.8" y="37.9" class="st1" width="0.6" height="0.6"/>
		<rect x="26.4" y="33.3" class="st1" width="0.6" height="0.6"/>
		<rect x="29.8" y="48.1" class="st1" width="0.6" height="0.6"/>
		<rect x="29.7" y="47.2" class="st1" width="0.6" height="0.6"/>
		<rect x="29.8" y="49.8" class="st1" width="0.6" height="0.6"/>
		<rect x="29.8" y="48.9" class="st1" width="0.6" height="0.6"/>
		<rect x="29.7" y="46.3" class="st1" width="0.6" height="0.6"/>
		<rect x="29.4" y="43.6" class="st1" width="0.6" height="0.6"/>
		<rect x="29.6" y="45.4" class="st1" width="0.6" height="0.6"/>
		<rect x="29.2" y="42.7" class="st1" width="0.6" height="0.6"/>
		<rect x="29.8" y="50.6" class="st1" width="0.6" height="0.6"/>
		<rect x="29.5" y="44.5" class="st1" width="0.6" height="0.6"/>
		<rect x="29.5" y="54" class="st1" width="0.6" height="0.6"/>
		<rect x="28.9" y="56.4" class="st1" width="0.6" height="0.6"/>
		<rect x="28.7" y="57.3" class="st1" width="0.6" height="0.6"/>
		<rect x="29.2" y="55.6" class="st1" width="0.6" height="0.6"/>
		<rect x="29.8" y="51.5" class="st1" width="0.6" height="0.6"/>
		<rect x="28.4" y="58.1" class="st1" width="0.6" height="0.6"/>
		<rect x="29.7" y="52.3" class="st1" width="0.6" height="0.6"/>
		<rect x="29.6" y="53.1" class="st1" width="0.6" height="0.6"/>
		<rect x="28" y="58.9" class="st1" width="0.6" height="0.6"/>
		<rect x="29.4" y="54.8" class="st1" width="0.6" height="0.6"/>
		<rect x="26.3" y="62.2" class="st1" width="0.6" height="0.6"/>
		<rect x="28.6" y="33" class="st1" width="0.6" height="0.3"/>
		<rect x="30.2" y="33.2" class="st1" width="0.6" height="0.3"/>
		<rect x="31.7" y="33.3" class="st1" width="0.6" height="0.3"/>
		<rect x="34.4" y="33.5" class="st1" width="0.6" height="0.3"/>
		<rect x="33.1" y="33.4" class="st1" width="0.6" height="0.3"/>
		<rect x="27" y="32.6" class="st1" width="0.6" height="0.3"/>
		<rect x="27.4" y="63.1" class="st1" width="0.6" height="0.6"/>
		<rect x="27.1" y="63.9" class="st1" width="0.6" height="0.6"/>
		<rect x="26.6" y="65.5" class="st1" width="0.6" height="0.6"/>
		<rect x="26.8" y="64.7" class="st1" width="0.6" height="0.6"/>
		<rect x="43" y="33.5" class="st1" width="0.6" height="0.3"/>
		<rect x="27.8" y="62.2" class="st1" width="0.6" height="0.6"/>
		<rect x="35.7" y="33.5" class="st1" width="0.6" height="0.3"/>
		<rect x="43.1" y="38.1" class="st1" width="0.6" height="0.6"/>
		<rect x="41.1" y="33.5" class="st1" width="0.6" height="0.3"/>
		<rect x="42" y="33.5" class="st1" width="0.6" height="0.3"/>
		<rect x="40.1" y="33.5" class="st1" width="0.6" height="0.3"/>
		<rect x="36.9" y="33.5" class="st1" width="0.6" height="0.3"/>
		<rect x="38" y="33.6" class="st1" width="0.6" height="0.3"/>
		<rect x="39.1" y="33.6" class="st1" width="0.6" height="0.3"/>
		<rect x="28.2" y="61.4" class="st1" width="0.6" height="0.6"/>
		<rect x="30.7" y="49.8" class="st1" width="0.6" height="0.6"/>
		<rect x="30.7" y="50.6" class="st1" width="0.6" height="0.6"/>
		<rect x="30.5" y="53.1" class="st1" width="0.6" height="0.6"/>
		<rect x="30.7" y="51.5" class="st1" width="0.6" height="0.6"/>
		<rect x="30.6" y="52.3" class="st1" width="0.6" height="0.6"/>
		<rect x="30.7" y="48.9" class="st1" width="0.6" height="0.6"/>
		<rect x="30.5" y="45.5" class="st1" width="0.6" height="0.6"/>
		<rect x="30.6" y="46.4" class="st1" width="0.6" height="0.6"/>
		<rect x="30.7" y="47.2" class="st1" width="0.6" height="0.6"/>
		<rect x="30.4" y="44.6" class="st1" width="0.6" height="0.6"/>
		<rect x="30.7" y="48.1" class="st1" width="0.6" height="0.6"/>
		<rect x="28.9" y="59.8" class="st1" width="0.6" height="0.6"/>
		<rect x="30.5" y="54" class="st1" width="0.6" height="0.6"/>
		<rect x="29.5" y="58.1" class="st1" width="0.6" height="0.6"/>
		<rect x="28.5" y="60.6" class="st1" width="0.6" height="0.6"/>
		<rect x="29.2" y="58.9" class="st1" width="0.6" height="0.6"/>
		<rect x="30.2" y="55.6" class="st1" width="0.6" height="0.6"/>
		<rect x="29.8" y="57.3" class="st1" width="0.6" height="0.6"/>
		<rect x="30.3" y="54.8" class="st1" width="0.6" height="0.6"/>
		<rect x="30" y="56.4" class="st1" width="0.6" height="0.6"/>
		<rect x="28.4" y="36.9" class="st1" width="0.6" height="0.6"/>
		<rect x="24.4" y="60.6" class="st1" width="0.6" height="0.6"/>
		<rect x="23.7" y="61.4" class="st1" width="0.6" height="0.6"/>
		<rect x="25" y="59.7" class="st1" width="0.6" height="0.6"/>
		<rect x="21.5" y="63.8" class="st1" width="0.6" height="0.6"/>
		<rect x="23" y="62.2" class="st1" width="0.6" height="0.6"/>
		<rect x="22.2" y="63" class="st1" width="0.6" height="0.6"/>
		<rect x="27.1" y="55.6" class="st1" width="0.6" height="0.6"/>
		<rect x="25.5" y="58.9" class="st1" width="0.6" height="0.6"/>
		<rect x="26.8" y="56.4" class="st1" width="0.6" height="0.6"/>
		<rect x="26" y="58.1" class="st1" width="0.6" height="0.6"/>
		<rect x="26.5" y="57.3" class="st1" width="0.6" height="0.6"/>
		<rect x="24.6" y="34.3" class="st1" width="0.6" height="0.6"/>
		<rect x="24" y="33.2" class="st1" width="0.6" height="0.6"/>
		<rect x="25.3" y="35.3" class="st1" width="0.6" height="0.6"/>
		<rect x="26.4" y="37.5" class="st1" width="0.6" height="0.6"/>
		<rect x="20.4" y="65.5" class="st1" width="0.6" height="0.6"/>
		<rect x="25.9" y="36.4" class="st1" width="0.6" height="0.6"/>
		<rect x="23.3" y="32.2" class="st1" width="0.6" height="0.6"/>
		<rect x="20.9" y="64.7" class="st1" width="0.6" height="0.6"/>
		<rect x="22.4" y="30.6" class="st1" width="0.6" height="0.3"/>
		<rect x="22.8" y="31.2" class="st1" width="0.6" height="0.6"/>
		<rect x="27.6" y="54" class="st1" width="0.6" height="0.6"/>
		<rect x="27.2" y="42.5" class="st1" width="0.6" height="0.6"/>
		<rect x="27.4" y="43.5" class="st1" width="0.6" height="0.6"/>
		<rect x="27.8" y="45.4" class="st1" width="0.6" height="0.6"/>
		<rect x="27.6" y="44.5" class="st1" width="0.6" height="0.6"/>
		<rect x="27" y="41.5" class="st1" width="0.6" height="0.6"/>
		<rect x="25.8" y="38.4" class="st1" width="0.6" height="0.6"/>
		<rect x="27.9" y="46.3" class="st1" width="0.6" height="0.6"/>
		<rect x="25.2" y="37.2" class="st1" width="0.6" height="0.6"/>
		<rect x="27.4" y="54.8" class="st1" width="0.6" height="0.6"/>
		<rect x="26.6" y="40.5" class="st1" width="0.6" height="0.6"/>
		<rect x="26.2" y="39.4" class="st1" width="0.6" height="0.6"/>
		<rect x="27.9" y="51.5" class="st1" width="0.6" height="0.6"/>
		<rect x="27.9" y="47.2" class="st1" width="0.6" height="0.6"/>
		<rect x="27.9" y="52.3" class="st1" width="0.6" height="0.6"/>
		<rect x="26.9" y="38.5" class="st1" width="0.6" height="0.6"/>
		<rect x="27.7" y="53.1" class="st1" width="0.6" height="0.6"/>
		<rect x="28" y="48.9" class="st1" width="0.6" height="0.6"/>
		<rect x="28" y="48.1" class="st1" width="0.6" height="0.6"/>
		<rect x="28" y="49.8" class="st1" width="0.6" height="0.6"/>
		<rect x="28" y="50.6" class="st1" width="0.6" height="0.6"/>
		<rect x="27.3" y="39.6" class="st1" width="0.6" height="0.6"/>
		<rect x="24.6" y="62.2" class="st1" width="0.6" height="0.6"/>
		<rect x="24.1" y="63" class="st1" width="0.6" height="0.6"/>
		<rect x="23.5" y="63.9" class="st1" width="0.6" height="0.6"/>
		<rect x="23" y="64.7" class="st1" width="0.6" height="0.6"/>
		<rect x="22.6" y="65.5" class="st1" width="0.6" height="0.6"/>
		<rect x="25.8" y="60.6" class="st1" width="0.6" height="0.6"/>
		<rect x="26.3" y="59.7" class="st1" width="0.6" height="0.6"/>
		<rect x="25.2" y="61.4" class="st1" width="0.6" height="0.6"/>
		<rect x="26.8" y="58.9" class="st1" width="0.6" height="0.6"/>
		<rect x="23.9" y="31.5" class="st1" width="0.6" height="0.3"/>
		<rect x="26.6" y="35.7" class="st1" width="0.6" height="0.6"/>
		<rect x="28" y="38.7" class="st1" width="0.6" height="0.6"/>
		<rect x="27.6" y="37.7" class="st1" width="0.6" height="0.6"/>
		<rect x="27.1" y="36.7" class="st1" width="0.6" height="0.6"/>
		<rect x="28.4" y="39.7" class="st1" width="0.6" height="0.6"/>
		<rect x="26" y="34.7" class="st1" width="0.6" height="0.6"/>
		<rect x="24.8" y="32.8" class="st1" width="0.6" height="0.6"/>
		<rect x="27.2" y="58.1" class="st1" width="0.6" height="0.6"/>
		<rect x="25.4" y="33.7" class="st1" width="0.6" height="0.6"/>
		<rect x="24.3" y="32" class="st1" width="0.6" height="0.6"/>
		<rect x="28.4" y="54.8" class="st1" width="0.6" height="0.6"/>
		<rect x="28.6" y="44.5" class="st1" width="0.6" height="0.6"/>
		<rect x="28.8" y="46.3" class="st1" width="0.6" height="0.6"/>
		<rect x="28.7" y="45.4" class="st1" width="0.6" height="0.6"/>
		<rect x="28.9" y="48.1" class="st1" width="0.6" height="0.6"/>
		<rect x="28.9" y="48.9" class="st1" width="0.6" height="0.6"/>
		<rect x="28.8" y="47.2" class="st1" width="0.6" height="0.6"/>
		<rect x="28.4" y="43.6" class="st1" width="0.6" height="0.6"/>
		<rect x="28" y="41.6" class="st1" width="0.6" height="0.6"/>
		<rect x="27.7" y="40.6" class="st1" width="0.6" height="0.6"/>
		<rect x="27.6" y="57.3" class="st1" width="0.6" height="0.6"/>
		<rect x="28.2" y="42.6" class="st1" width="0.6" height="0.6"/>
		<rect x="28.9" y="49.8" class="st1" width="0.6" height="0.6"/>
		<rect x="28.7" y="40.7" class="st1" width="0.6" height="0.6"/>
		<rect x="28.5" y="54" class="st1" width="0.6" height="0.6"/>
		<rect x="27.9" y="56.4" class="st1" width="0.6" height="0.6"/>
		<rect x="28.2" y="55.6" class="st1" width="0.6" height="0.6"/>
		<rect x="28.7" y="53.1" class="st1" width="0.6" height="0.6"/>
		<rect x="28.9" y="51.5" class="st1" width="0.6" height="0.6"/>
		<rect x="28.9" y="50.6" class="st1" width="0.6" height="0.6"/>
		<rect x="28.8" y="52.3" class="st1" width="0.6" height="0.6"/>
	</g>
	<g>
		<path class="st1" d="M63.1,50.1l8.3,16.5h-9.5l-5.2-10.3l-7.8,10.3h-9.2l13.6-17.1l-8.1-16.1h9.5l5,10l7.6-10h9.1L63.1,50.1z"/>
	</g>
</g>
</svg>
